<?xml version="1.0" encoding="utf-8"?>
<!-- Generator: Adobe Illustrator 19.0.0, SVG Export Plug-In . SVG Version: 6.00 Build 0)  -->
<svg version="1.1" id="Слой_1" xmlns="http://www.w3.org/2000/svg" xmlns:xlink="http://www.w3.org/1999/xlink" x="0px" y="0px"
	 viewBox="0 0 300 300" style="enable-background:new 0 0 300 300;" xml:space="preserve">
<style type="text/css">
	.st0{fill:#141213;stroke:#000000;stroke-miterlimit:10;}
	.st1{fill:#FFFFFF;}
</style>
<path id="XMLID_1_" class="st0" d="M243.7,275H60.3C40.8,275,25,259.2,25,239.8v-183c0-19.5,15.8-35.3,35.3-35.3h183.5
	c19.5,0,35.3,15.8,35.3,35.3v183C279,259.2,263.2,275,243.7,275z"/>
<path id="XMLID_24_" class="st1" d="M236.7,189.3c-1.4,6-5.4,9.5-10.6,12.4c-19.9,11.2-39.7,22.7-59.3,34.3
	c-6.4,3.8-12.3,4.1-18.6,0c-5.9-3.8-12.1-7.2-18.1-10.8c-1.1-0.7-2.1-1.5-3.5-2.5c4.1-1.9,7.5-3.7,11-5.1c0.9-0.4,2.4,0.1,3.4,0.6
	c4.6,2.6,9.1,5.3,13.6,8.1c1.9,1.2,3.4,1.3,5.5,0.1c20.6-12,41.3-23.9,62-35.7c2-1.1,2.7-2.5,2.7-4.8c-0.1-23.9-0.1-47.8,0-71.7
	c0-2.3-0.7-3.7-2.7-4.8c-20.6-11.8-41.2-23.6-61.7-35.5c-2.3-1.3-4-1.1-6.1,0.1c-20.4,11.9-40.8,23.7-61.3,35.4
	c-2.2,1.2-2.9,2.7-2.8,5.1c0.1,23.8,0.1,47.5,0,71.3c0,2.3,0.7,3.7,2.7,4.8c5.1,2.8,10,5.8,15,8.6c1.4,0.8,2.9,1.6,4.4,2
	c7.3,2,12.5-1.9,12.6-9.5c0-22.9,0-45.8,0-68.7c0-0.9,0.1-1.8,0-2.6c-0.2-2.6,0.8-3.6,3.5-3.5c9.4,0.2,8.4-1.1,8.4,8.1
	c0,22,0,44,0,66c0,2.9-0.1,5.8-0.7,8.6c-2.3,10.6-12.4,16.3-24,13.4c-3.8-1-7.5-2.7-11.1-4.5c-4-2-7.7-4.7-11.8-6.7
	c-5.8-2.8-9.8-6.8-11-13.3c0-25.7,0-51.3,0-77c1.1-5.3,3.7-9.3,8.6-12c20.8-11.9,41.5-23.9,62.2-35.9c5.8-3.4,11.2-3.3,17,0
	c20,11.7,40.1,23.4,60.3,34.8c5.2,2.9,9.1,6.5,10.5,12.4C236.7,137,236.7,163.1,236.7,189.3z"/>
<path id="XMLID_22_" class="st1" d="M175.7,114.1c6.3,1.4,12.9,2.2,18.9,4.4c8,2.9,11.9,9.6,12.8,18c0.2,2.2-0.4,3.4-2.8,3.2
	c-1-0.1-2-0.1-3,0c-3.8,0.6-6.3-0.4-7.3-4.7c-0.9-3.9-4-6.4-7.9-7.4c-7-1.7-14.2-1.9-21.2-0.1c-1.9,0.5-3.8,1.6-5.1,2.9
	c-3.5,3.5-2.2,9.3,2.5,10.5c6.7,1.7,13.5,2.5,20.3,3.8c4.8,0.9,9.6,1.8,14.3,3.1c7.4,2.1,12.3,6.6,13,14.8
	c0.6,7.9-1.7,14.8-8.7,18.7c-4.7,2.6-10.1,4.4-15.5,5.2c-9.5,1.5-19,1-28.2-2.4c-8.5-3.2-13.4-9.3-14.6-18.4c-0.4-3.2,0.5-4.9,4-4.4
	c0.6,0.1,1.3,0.1,1.9,0c4.1-0.7,6.4,0.5,7.1,5.1c0.8,4.9,4.7,7.8,9.3,8.2c7.7,0.6,15.5,0.3,23.2,0.2c1.5,0,3.1-1,4.5-1.7
	c3.2-1.8,4.4-4.7,4.2-8.2c-0.2-3.3-2.5-5-5.3-5.6c-7.4-1.5-14.8-2.5-22.2-3.9c-3.9-0.7-7.9-1.3-11.7-2.5c-7.2-2.2-12-6.7-12.7-14.7
	c-0.7-8.5,2.5-14.9,10.1-19.1c6.3-3.4,13.1-4.2,20.1-4.1C175.5,114.7,175.6,114.4,175.7,114.1z"/>
</svg>
