<?xml version="1.0" encoding="utf-8"?>
<!-- Generator: Adobe Illustrator 19.0.0, SVG Export Plug-In . SVG Version: 6.00 Build 0)  -->
<svg version="1.1" id="Слой_1" xmlns="http://www.w3.org/2000/svg" xmlns:xlink="http://www.w3.org/1999/xlink" x="0px" y="0px"
	 viewBox="0 0 300 300" style="enable-background:new 0 0 300 300;" xml:space="preserve">
<style type="text/css">
	.st0{fill:#141213;stroke:#000000;stroke-miterlimit:10;}
	.st1{fill:#FFFFFF;}
</style>
<path id="XMLID_1_" class="st0" d="M243.7,275H60.3C40.8,275,25,259.2,25,239.8v-183c0-19.5,15.8-35.3,35.3-35.3h183.5
	c19.5,0,35.3,15.8,35.3,35.3v183C279,259.2,263.2,275,243.7,275z"/>
<path id="XMLID_35_" class="st1" d="M161.1,56.8c4.7,0.8,9.5,1.5,14.2,2.6c13.3,2.9,20.5,11.9,20.5,25.5c0.1,13.3,0.1,26.5,0.1,39.8
	c0,11-8.9,20.6-19.9,21c-13.7,0.5-27.3,0.4-41,0.7c-12.8,0.3-23.4,8.1-27.1,20.4c-1,3.5-1,7.4-1.1,11c-0.2,6.9,0,13.7,0,20.4
	c-8,0-15.4,0.7-22.6-0.2c-7.1-0.9-12.5-5.5-15.2-12.2c-2.6-6.6-4.9-13.5-5.9-20.5c-1.9-13.2-1.2-26.5,4.1-39
	c4.5-10.7,12.7-16.5,24.4-16.6c19.7-0.3,39.5-0.4,59.2-0.5c2.5,0,4.9,0,7.6,0c0-2.7,0-4.9,0-7.6c-14.6,0-29.2,0-44.2,0
	c-0.1-1.5-0.3-2.7-0.3-3.9c0.2-6.5,0.3-13,0.6-19.5c0.4-9.1,4.4-14.5,13-17c6.1-1.7,12.4-2.5,18.6-3.6c2.2-0.4,4.3-0.6,6.5-0.9
	C155.5,56.8,158.3,56.8,161.1,56.8z M132.6,91c4.6,0,8.3-3.4,8.4-7.8c0.1-4.7-3.5-8.2-8.4-8.3c-4.6,0-8,3.4-8.1,8
	C124.5,87.5,128,91,132.6,91z"/>
<path id="XMLID_32_" class="st1" d="M145.3,243.2c-3.9-0.8-7.8-1.5-11.6-2.5c-12.9-3.6-19.1-11.6-19.1-24.9c-0.1-13.7,0-27.3,0.2-41
	c0.1-10.4,9.3-20,19.7-20.3c14.1-0.5,28.1-0.6,42.2-0.7c13.6-0.1,26.3-12.3,26.7-26c0.3-8.5,0-17.1,0-26.7c8.7,0.6,17,0.1,25,1.9
	c8.5,1.8,12.9,9.1,15.4,17c1.8,5.9,2.9,12,4.3,18c0,5.5,0,11,0,16.6c-1.1,5.1-1.9,10.3-3.4,15.3c-3.8,13.5-14,21.1-28,21.1
	c-20.3,0-40.5,0-60.8,0c-1.5,0-2.9,0.1-4.4,0.2c0,2.9,0,5.3,0,8.2c14.9,0,29.6,0,44.3,0c0,7.4,0.1,14.2,0,21.1
	c-0.2,11.3-4.4,16.7-15.3,19.5c-5.8,1.5-11.8,2.3-17.7,3.5C156.9,243.2,151.1,243.2,145.3,243.2z M185.6,217.2c0-4.5-3.6-8-8.1-8.1
	c-4.2,0-8.2,3.8-8.2,8.1c-0.1,4.4,4,8.4,8.5,8.3C182.2,225.5,185.6,221.9,185.6,217.2z"/>
</svg>
