<?xml version="1.0" encoding="utf-8"?>
<!-- Generator: Adobe Illustrator 19.0.0, SVG Export Plug-In . SVG Version: 6.00 Build 0)  -->
<svg version="1.1" id="Слой_1" xmlns="http://www.w3.org/2000/svg" xmlns:xlink="http://www.w3.org/1999/xlink" x="0px" y="0px"
	 viewBox="0 0 300 300" style="enable-background:new 0 0 300 300;" xml:space="preserve">
<style type="text/css">
	.st0{fill:#141213;stroke:#000000;stroke-miterlimit:10;}
	.st1{fill:#FFFFFF;stroke:#FFFFFF;stroke-width:3;stroke-miterlimit:10;}
	.st2{fill:#FFFFFF;}
</style>
<path id="XMLID_1_" class="st0" d="M243.7,275H60.3C40.8,275,25,259.2,25,239.8v-183c0-19.5,15.8-35.3,35.3-35.3h183.5
	c19.5,0,35.3,15.8,35.3,35.3v183C279,259.2,263.2,275,243.7,275z"/>
<path id="XMLID_94_" class="st1" d="M96.2,184c-1.8-0.6-3.6-1.1-5.3-1.7c-6.5-2.2-12.7-5-18.5-8.7c-3.4-2.2-6.6-4.6-9.4-7.6
	c-2.6-2.8-4.8-5.8-6.1-9.5c-1.5-4.3-1.2-8.5,0.8-12.6c1.1-2.4,2.7-4.5,4.4-6.5c3.8-4.1,8.4-7.3,13.2-10c6.4-3.5,13.2-6.1,20.2-8.1
	c0.2-0.1,0.4-0.1,0.7-0.2c0.1,0,0.1-0.1,0.2-0.1c-0.2-0.7-0.3-1.4-0.5-2.1c-1-4.4-1.8-8.8-2.3-13.3c-0.2-1.9-0.3-3.9-0.4-5.8
	c-0.1-1.4-0.2-2.8-0.1-4.3c0.2-4.9,0.7-9.8,2.4-14.5c1.1-3,2.6-5.8,4.8-8.2c2.1-2.2,4.6-3.7,7.6-4.4c2.6-0.7,5.2-0.7,7.9-0.4
	c4.3,0.5,8.3,1.8,12.1,3.6c6.8,3.1,12.9,7.3,18.6,12.1c1.9,1.6,3.8,3.3,5.7,5c0.2-0.2,0.5-0.4,0.8-0.7c5.7-5.5,11.9-10.4,18.8-14.3
	c4-2.3,8.3-4.2,12.8-5.3c2.8-0.7,5.6-1,8.4-0.8c5.3,0.4,9.5,2.9,12.5,7.3c2.2,3.2,3.4,6.7,4.3,10.4c0.6,2.9,1,5.8,1.1,8.8
	c0,1.9,0.2,3.8,0.1,5.7c-0.1,2.9-0.3,5.9-0.7,8.8c-0.5,3.6-1.1,7.2-1.9,10.7c-0.1,0.5-0.2,1-0.4,1.6c0.7,0.2,1.4,0.4,2.1,0.7
	c5.9,1.8,11.7,4,17.3,6.9c3.9,2,7.5,4.3,10.9,7c2.7,2.3,5.2,4.8,7.1,7.8c1.9,3,3.1,6.2,3,9.8c0,2.4-0.6,4.7-1.6,6.8
	c-1.4,3-3.4,5.6-5.8,8c-3.9,3.9-8.5,6.9-13.3,9.5c-4.6,2.5-9.5,4.5-14.5,6.2c-1.5,0.5-3.1,1-4.7,1.5c0.1,0.5,0.2,1,0.3,1.6
	c0.9,3.7,1.6,7.5,2,11.3c0.2,2.2,0.4,4.4,0.5,6.5c0.1,1.7,0.2,3.4,0.1,5.1c-0.2,5.4-0.8,10.7-2.7,15.7c-1.2,3.1-2.8,6-5.2,8.4
	c-2.6,2.5-5.7,4-9.2,4.5c-3.9,0.5-7.7,0-11.5-1.1c-4.9-1.5-9.4-3.7-13.7-6.5c-4.7-2.9-9-6.3-13.1-10c-1.1-1-2.1-2-3.3-3
	c-0.3,0.2-0.5,0.4-0.8,0.6c-5.6,5.3-11.6,10-18.4,13.8c-4.1,2.3-8.4,4.2-13,5.4c-2.3,0.6-4.6,0.9-6.9,1c-4.3,0-8.3-0.9-11.7-3.8
	c-2.2-1.8-3.8-4-5-6.5c-2-4-3-8.3-3.3-12.8c-0.2-2.1-0.3-4.2-0.3-6.3c0-2.2,0.1-4.3,0.3-6.5c0.3-2.8,0.6-5.5,1-8.3
	c0.4-2.7,1.1-5.3,1.6-7.9C96.1,184.5,96.1,184.3,96.2,184z M151.7,182.2c0,0.1,0,0.1,0,0.2c4.5-0.2,8.9-0.3,13.4-0.5
	c1.3,0,2.6-0.2,3.9-0.2c0.5,0,0.7-0.2,1-0.6c0.8-1.4,1.7-2.7,2.6-4c5.2-8.1,9.9-16.5,14.2-25.1c0.2-0.5,0.3-0.9,0-1.4
	c-1.1-2.1-2.2-4.2-3.3-6.3c-3-5.6-6.2-11.2-9.6-16.5c-1.3-2.1-2.7-4.1-4-6.2c-0.2-0.3-0.3-0.6-0.8-0.6c-1.8-0.1-3.6-0.2-5.4-0.3
	c-2.3-0.1-4.5-0.2-6.8-0.2c-4.5,0-9.1,0.1-13.6,0.2c-2.7,0.1-5.4,0.3-8.1,0.4c-0.5,0-0.7,0.2-1,0.5c-2,3.1-4.1,6.2-6.1,9.4
	c-3.9,6.3-7.4,12.8-10.6,19.4c-0.4,0.7-0.4,1.3,0,2.1c2.3,4.3,4.5,8.7,6.9,12.9c2.4,4.3,5.1,8.4,7.6,12.5c0.7,1.2,1.5,2.3,2.3,3.4
	c0.2,0.3,0.5,0.5,0.9,0.5c0.7,0,1.4,0.1,2,0.1c2.2,0.1,4.3,0.3,6.5,0.3C146.3,182.2,149,182.2,151.7,182.2z M98.5,127.2
	c-0.2,0-0.3,0.1-0.5,0.1c-6.1,1.8-12.1,3.9-17.7,6.9c-3.4,1.8-6.6,3.8-9.5,6.3c-2,1.7-3.7,3.5-5.1,5.7c-0.9,1.4-1.5,2.9-1.6,4.6
	c-0.1,1.8,0.5,3.4,1.3,4.9c1,2,2.4,3.6,4,5.2c1.9,1.9,4.1,3.6,6.4,5.1c6.2,4.1,12.9,6.9,19.9,9.2c0.9,0.3,1.7,0.5,2.6,0.8
	c0.1-0.2,0.2-0.4,0.2-0.5c1.5-5,3.3-9.9,5.3-14.7c1.2-2.9,2.5-5.8,3.7-8.6c0.2-0.4,0.3-0.8,0.1-1.3c-3-6.6-5.7-13.3-8-20.1
	C99.3,129.5,98.9,128.4,98.5,127.2z M104.2,186c-0.1,0.3-0.2,0.6-0.2,0.8c-0.6,3.2-1.3,6.5-1.9,9.7c-0.5,3.1-0.7,6.2-0.9,9.3
	c-0.1,2.9,0.1,5.8,0.4,8.7c0.4,2.8,1.1,5.6,2.3,8.2c1.8,3.9,4.7,6,9,5.9c3.2-0.1,6.2-0.8,9.1-1.9c5-1.9,9.6-4.6,13.9-7.7
	c3.4-2.4,6.5-5.1,9.6-7.9c0.3-0.3,0.6-0.6,0.9-0.9c-0.7-0.7-1.3-1.3-1.9-2c-2.9-3.4-5.7-6.8-8.5-10.2c-1.9-2.4-3.7-4.9-5.5-7.4
	c-0.3-0.4-0.6-0.8-1.2-0.8c-0.9,0-1.7-0.1-2.5-0.2c-3.2-0.4-6.5-0.7-9.7-1.2c-3.8-0.6-7.5-1.3-11.3-1.9
	C105.4,186.2,104.8,186.1,104.2,186z M158.2,210c0.2,0.2,0.4,0.5,0.6,0.6c2.8,2.7,5.8,5.2,8.9,7.6c4.1,3.1,8.5,5.9,13.3,7.9
	c3,1.3,6.1,2.2,9.4,2.4c3.6,0.2,6.6-1,8.6-4.2c1.1-1.8,1.9-3.7,2.5-5.8c1.1-3.9,1.4-7.9,1.5-12c0-0.8-0.1-1.6-0.1-2.4
	c-0.1-1.6-0.1-3.1-0.2-4.7c-0.4-3.7-0.9-7.3-1.7-10.9c-0.2-1-0.5-2-0.7-3c-0.3,0-0.5,0.1-0.7,0.1c-2.1,0.4-4.2,0.9-6.3,1.3
	c-3,0.5-5.9,1-8.9,1.4c-2.9,0.4-5.8,0.7-8.7,1c-1.3,0.1-1.3,0.1-2.1,1.2c-0.1,0.1-0.1,0.2-0.2,0.3c-4,5.6-8.1,11.1-12.7,16.3
	C159.8,208.1,159,209.1,158.2,210z M104.3,117.1c0.3,0,0.4,0,0.5,0c4-0.9,8-1.6,12.1-2.3c4.1-0.6,8.1-1.2,12.3-1.5
	c0.5,0,0.9-0.2,1.2-0.7c1.6-2.2,3.1-4.3,4.8-6.4c3.1-4.1,6.4-8,9.9-11.8c0.4-0.5,0.8-0.9,1.3-1.4c-1.2-1.1-2.3-2.1-3.4-3.1
	c-4.5-4-9.3-7.5-14.5-10.5c-3.4-1.9-7-3.5-10.9-4.5c-2.3-0.5-4.6-0.9-7-0.4c-1.6,0.3-3.1,1-4.2,2.2c-1.1,1.1-1.8,2.4-2.5,3.8
	c-1.5,3.5-2.1,7.1-2.4,10.9c-0.2,3.2-0.2,6.4,0.1,9.6c0.3,3.7,0.9,7.4,1.6,11.1C103.5,113.7,103.9,115.4,104.3,117.1z M199.7,117.2
	c0.1-0.2,0.2-0.4,0.2-0.7c0.2-1.1,0.5-2.2,0.7-3.3c0.9-4.2,1.5-8.4,1.8-12.7c0.1-2.1,0.2-4.2,0.1-6.4c-0.1-3.1-0.4-6.1-1.1-9.1
	c-0.6-2.5-1.4-4.9-2.9-7.1c-1.2-1.8-2.7-3-4.8-3.5c-1.2-0.3-2.4-0.3-3.6-0.3c-3,0.2-5.8,1-8.6,2.2c-5.1,2.1-9.7,4.9-14,8.3
	c-2.6,2-5.1,4.2-7.6,6.3c-0.7,0.6-1.3,1.4-2,2.1c0.2,0.2,0.4,0.5,0.6,0.8c2.4,2.8,4.8,5.5,7.1,8.3c2.7,3.4,5.3,7,8,10.6
	c0.3,0.4,0.5,0.6,1,0.7c3,0.3,6,0.6,9,1.1c3.6,0.5,7.2,1.2,10.8,1.8C196.3,116.4,198,116.8,199.7,117.2z M205.6,127.3
	c-0.1,0.4-0.3,0.7-0.4,1c-1.5,4.8-3.2,9.5-5.2,14.1c-1.2,2.8-2.4,5.6-3.6,8.4c-0.2,0.3-0.2,0.6,0,1c0.5,1.1,1,2.1,1.5,3.2
	c2.6,5.7,5,11.6,7,17.5c0.3,1,0.7,2,1,3.1c0.3-0.1,0.6-0.1,0.8-0.2c5.6-1.7,11-3.8,16.1-6.5c3.4-1.8,6.6-3.7,9.5-6.2
	c2.4-2,4.6-4.2,6.2-7c1.6-2.9,1.7-5.8,0-8.7c-1.3-2.3-3.1-4.2-5.1-6c-3.1-2.7-6.6-4.9-10.2-6.8c-4.7-2.5-9.7-4.4-14.8-6
	C207.6,127.9,206.6,127.6,205.6,127.3z M197.9,177.6c-1.9-5.8-4-11.3-6.4-16.8c-3.5,6.8-7.3,13.3-11.2,19.6c0,0,0,0.1,0,0.1
	c0,0,0,0,0.1,0.1C186.2,179.9,192,179,197.9,177.6z M124.1,180.8c-4.2-6.5-7.9-12.9-11.4-19.7c-2.3,5.6-4.4,11.1-6.2,16.9
	C112.3,179.2,118.1,180.1,124.1,180.8z M152.3,204.1c2-1.8,10.7-12.6,11.1-13.8c-7.5,0.4-14.9,0.3-22.5,0.1
	C144.5,195.2,148.3,199.7,152.3,204.1z M163.1,112.4c0-0.1,0.1-0.1,0.1-0.2c-3.5-4.6-7.1-9.1-11.1-13.3
	c-2.1,1.8-10.8,12.3-11.2,13.5c0.6-0.1,1.2-0.1,1.8-0.1c2.3-0.1,4.6-0.2,6.9-0.2c3,0,6.1,0.1,9.1,0.1c0.1,0,0.3,0,0.4,0
	C160.5,112.3,161.8,112.4,163.1,112.4z M180.1,122.2c4.1,6.4,7.8,12.8,11.3,19.5c2.4-5.5,4.4-10.9,6.1-16.5
	C191.8,123.9,186.1,122.9,180.1,122.2z M106.6,125.1c1.7,5.6,3.7,11,6.1,16.5c3.5-6.7,7.2-13.1,11.2-19.5
	C118,122.9,112.3,123.8,106.6,125.1z"/>
<path id="XMLID_78_" class="st2" d="M168.5,150.2c0.1,9.2-7.6,16.8-16.7,16.8c-9,0-16.8-7.1-16.8-16.8c0-9.7,8-17.1,17.4-16.8
	C161.2,133.7,168.6,141.1,168.5,150.2z"/>
</svg>
